<svg width="18" height="18" viewBox="0 0 18 18" fill="none" xmlns="http://www.w3.org/2000/svg">
<path d="M12.7509 0.678711L11.0494 2.38027L15.6197 6.95059L17.3212 5.24902C18.2001 4.37012 18.2001 2.94629 17.3212 2.06738L15.9361 0.678711C15.0572 -0.200195 13.6333 -0.200195 12.7544 0.678711H12.7509ZM10.2548 3.1748L2.05991 11.3732C1.69429 11.7389 1.4271 12.1924 1.27944 12.6881L0.0349126 16.9174C-0.052978 17.2162 0.0278813 17.5361 0.24585 17.7541C0.463819 17.9721 0.783741 18.0529 1.07905 17.9686L5.30835 16.724C5.80405 16.5764 6.25757 16.3092 6.62319 15.9436L14.8251 7.74512L10.2548 3.1748Z" fill="#9B9EA2"/>
</svg>
