<svg width="143" height="26" viewBox="0 0 143 26" fill="none" xmlns="http://www.w3.org/2000/svg">
<path d="M11.2147 0C12.9925 0 14.612 0.389907 16.0732 1.16976C17.5587 1.94961 18.7276 3.03414 19.58 4.42324C20.4567 5.81235 20.8951 7.43304 20.8951 9.28519C20.8951 11.1129 20.4567 12.7335 19.58 14.147C18.7276 15.5361 17.5587 16.6328 16.0732 17.437C14.9689 18.0264 13.7741 18.3927 12.4889 18.5366C12.375 18.5494 12.2913 18.4342 12.3366 18.3288C12.7689 17.3222 13.2461 16.1885 13.6737 15.1426C14.0218 14.291 14.3375 13.4972 14.5696 12.8776C14.6856 12.5678 14.781 12.3009 14.8492 12.0918C14.9164 11.8858 14.9599 11.7279 14.9678 11.641L14.9681 11.6377C14.9689 11.6281 14.9706 11.6185 14.9732 11.6092C15.1964 10.8119 15.303 9.99361 15.2322 9.18257L15.2212 9.06975C15.2162 8.94177 15.1947 8.82346 15.1819 8.70467C14.8733 5.84106 12.3676 3.75877 9.58136 4.05904C6.7952 4.35936 4.79098 6.92761 5.09957 9.79118C5.4082 12.6548 7.91363 14.737 10.6998 14.4368C10.8673 14.4188 11.0319 14.3924 11.1935 14.3582C11.3134 14.3328 11.4195 14.4484 11.378 14.5638L9.95911 18.5066C9.93749 18.5667 9.8805 18.6067 9.81664 18.6067H7.12857C7.04495 18.6067 6.97716 18.6745 6.97716 18.7582V25.4375C6.97716 25.5211 6.90937 25.5889 6.82575 25.5889H0.151414C0.0677906 25.5889 0 25.5211 0 25.4375V0.151413C0 0.0677896 0.0677903 0 0.151414 0H11.2147Z" fill="url(#paint0_linear_10230_2234)"/>
<path d="M142.014 3.5127V25.5241H137.375V3.5127H142.014Z" fill="black"/>
<path d="M126.46 25.8358C123.792 25.8358 121.659 25.2252 120.064 24.004C118.478 22.7828 117.651 20.9854 117.582 18.6119H122.088C122.167 19.715 122.6 20.5472 123.388 21.1085C124.185 21.66 125.19 21.9358 126.401 21.9358C127.583 21.9358 128.529 21.6847 129.238 21.1824C129.957 20.6801 130.316 20.0252 130.316 19.2176C130.316 18.479 129.991 17.9127 129.341 17.5187C128.691 17.115 127.765 16.7703 126.564 16.4847L124.156 15.8937C122.304 15.4506 120.842 14.7464 119.768 13.7812C118.705 12.8062 118.173 11.5062 118.173 9.88125C118.173 8.5517 118.532 7.38958 119.251 6.39489C119.97 5.39034 120.955 4.61231 122.206 4.0608C123.467 3.49943 124.899 3.21875 126.505 3.21875C128.14 3.21875 129.568 3.49943 130.789 4.0608C132.01 4.62216 132.96 5.40019 133.64 6.39489C134.329 7.38958 134.684 8.53693 134.704 9.83693H130.213C130.134 8.98011 129.77 8.31042 129.12 7.82784C128.47 7.34526 127.588 7.10398 126.475 7.10398C125.343 7.10398 124.471 7.34034 123.86 7.81307C123.25 8.27595 122.945 8.86686 122.945 9.58579C122.945 10.3638 123.284 10.9547 123.964 11.3585C124.643 11.7525 125.461 12.0627 126.416 12.2892L128.381 12.71024C129.661 13.0623 130.799 13.4809 131.793 14.0324C132.788 14.5741 133.571 15.2733 134.142 16.1301C134.713 16.9771 134.999 18.0112 134.999 19.2324C134.999 21.2513 134.246 22.8566 132.739 24.0483C131.232 25.24 129.139 25.8358 126.46 25.8358Z" fill="black"/>
<path d="M100.231 25.5241H95.2383L102.846 3.5127H108.829L116.422 25.5241H111.444L109.804 20.5013H101.856L100.231 25.5241ZM103.038 16.8672H108.622L105.919 8.53542H105.742L103.038 16.8672Z" fill="black"/>
<path d="M69.5 3.5127H75.2318L81.2886 18.3002H81.5398L87.6114 3.5127H93.3875V25.5241H88.8227V11.1945H88.6602L82.9432 25.4207H79.8557L74.1977 11.165H74.0057V25.5241H69.5V3.5127Z" fill="black"/>
<path d="M56.495 25.821C54.545 25.821 52.7919 25.3778 51.2359 24.4915C49.6798 23.6051 48.4487 22.3199 47.5427 20.6358C46.6366 18.9517 46.1836 16.918 46.1836 14.5347C46.1836 12.1316 46.6366 10.0881 47.5427 8.40398C48.4487 6.71989 49.6798 5.43466 51.2359 4.5483C52.7919 3.66193 54.545 3.21875 56.495 3.21875C58.445 3.21875 60.1931 3.66193 61.7393 4.5483C63.2953 5.43466 64.5264 6.71989 65.4325 8.40398C66.3385 10.0881 66.7915 12.1316 66.7915 14.5347C66.7915 16.9377 66.3385 18.9812 65.4325 20.6653C64.5264 22.3396 63.2953 23.6199 61.7393 24.5063C60.1931 25.3828 58.445 25.821 56.495 25.821ZM50.8961 14.5347C50.8961 16.8589 51.4033 18.6366 52.4177 19.8676C53.4419 21.0987 54.801 21.7142 56.495 21.7142C58.179 21.7142 59.5283 21.0987 60.5427 19.8676C61.5669 18.6366 62.079 16.8589 62.079 14.5347C62.079 12.2006 61.5669 10.418 60.5427 9.18693C59.5283 7.94602 58.179 7.32557 56.495 7.32557C54.801 7.32557 53.4419 7.94602 52.4177 9.18693C51.4033 10.418 50.8961 12.2006 50.8961 14.5347Z" fill="black"/>
<path d="M33.5926 25.821C31.6426 25.821 29.8896 25.3778 28.3335 24.4915C26.7775 23.6051 25.5464 22.3199 24.6403 20.6358C23.7343 18.9517 23.2812 16.918 23.2812 14.5347C23.2812 12.1316 23.7343 10.0881 24.6403 8.40398C25.5464 6.71989 26.7775 5.43466 28.3335 4.5483C29.8896 3.66193 31.6426 3.21875 33.5926 3.21875C35.5426 3.21875 37.2907 3.66193 38.8369 4.5483C40.393 5.43466 41.6241 6.71989 42.5301 8.40398C43.4362 10.0881 43.8892 12.1316 43.8892 14.5347C43.8892 16.9377 43.4362 18.9812 42.5301 20.6653C41.6241 22.3396 40.393 23.6199 38.8369 24.5063C37.2907 25.3828 35.5426 25.821 33.5926 25.821ZM27.9938 14.5347C27.9938 16.8589 28.5009 18.6366 29.5153 19.8676C30.5396 21.0987 31.8987 21.7142 33.5926 21.7142C35.21024 21.7142 36.6259 21.0987 37.6403 19.8676C38.6646 18.6366 39.11024 16.8589 39.11024 14.5347C39.11024 12.2006 38.6646 10.418 37.6403 9.18693C36.6259 7.94602 35.21024 7.32557 33.5926 7.32557C31.8987 7.32557 30.5396 7.94602 29.5153 9.18693C28.5009 10.418 27.9938 12.2006 27.9938 14.5347Z" fill="black"/>
<defs>
<linearGradient id="paint0_linear_10230_2234" x1="17.9425" y1="2.64974" x2="2.42262" y2="22.1064" gradientUnits="userSpaceOnUse">
<stop stop-color="#56EAD7"/>
<stop offset="0.269231" stop-color="#3ECDBA"/>
<stop offset="0.559269" stop-color="#08AE98"/>
<stop offset="1" stop-color="#068372"/>
</linearGradient>
</defs>
</svg>
