<svg width="146" height="47" viewBox="0 0 146 47" fill="none" xmlns="http://www.w3.org/2000/svg">
<path d="M133.486 46.6362V42.297H136.678V31.379H133.486V27.0398H145.272V31.379H142.053V42.297H145.272V46.6362H133.486Z" fill="black"/>
<path d="M116.249 46.6362V42.297H124.592C124.946 42.297 125.245 42.2224 125.487 42.0731C125.749 41.9238 125.954 41.7185 126.103 41.4572C126.253 41.1959 126.327 40.9159 126.327 40.6173C126.327 40.3001 126.253 40.0108 126.103 39.7495C125.954 39.4882 125.749 39.2829 125.487 39.1336C125.245 38.9843 124.946 38.9096 124.592 38.9096H121.82C120.644 38.9096 119.58 38.6763 118.629 38.2098C117.677 37.7432 116.912 37.0806 116.333 36.2221C115.773 35.345 115.493 34.2905 115.493 33.0587C115.493 31.8456 115.764 30.7911 116.305 29.8953C116.846 28.9808 117.574 28.2809 118.489 27.7957C119.403 27.2917 120.42 27.0398 121.54 27.0398H130.33V31.379H122.212C121.913 31.379 121.643 31.4537 121.4 31.603C121.176 31.7336 120.999 31.9109 120.868 32.1349C120.738 32.3588 120.672 32.6108 120.672 32.8907C120.672 33.1707 120.738 33.432 120.868 33.6746C120.999 33.8985 121.176 34.0852 121.4 34.2345C121.643 34.3651 121.913 34.4305 122.212 34.4305H125.151C126.439 34.4305 127.559 34.6731 128.511 35.1583C129.481 35.6436 130.228 36.3248 130.75 37.202C131.273 38.0605 131.534 39.0776 131.534 40.2534C131.534 41.5972 131.254 42.7543 130.694 43.7248C130.153 44.6766 129.416 45.4045 128.483 45.9084C127.568 46.3936 126.551 46.6362 125.431 46.6362H116.249Z" fill="black"/>
<path d="M93.4092 46.6362L99.708 29.4193C100.063 28.5048 100.623 27.8236 101.388 27.3757C102.153 26.9091 103.021 26.6758 103.991 26.6758C104.962 26.6758 105.83 26.8997 106.595 27.3477C107.379 27.7956 107.939 28.4768 108.274 29.3913L114.573 46.6362H108.834L107.687 43.0528H100.184L98.9802 46.6362H93.4092ZM101.444 38.7976H106.455L104.299 31.7149C104.281 31.6402 104.243 31.5842 104.187 31.5469C104.131 31.5096 104.066 31.4909 103.991 31.4909C103.935 31.4909 103.879 31.5096 103.823 31.5469C103.786 31.5842 103.749 31.6402 103.711 31.7149L101.444 38.7976Z" fill="black"/>
<path d="M77.5954 46.9721C76.4382 46.9721 75.3558 46.7295 74.3479 46.2442C73.3588 45.759 72.5563 45.0498 71.9404 44.1166C71.3432 43.1835 71.0445 42.073 71.0445 40.7852V32.7227C71.0445 32.4427 70.9792 32.2001 70.8486 31.9948C70.7366 31.7709 70.578 31.6029 70.3727 31.4909C70.1674 31.3789 69.9341 31.3229 69.6728 31.3229C69.4115 31.3229 69.1782 31.3789 68.9729 31.4909C68.7676 31.6029 68.5997 31.7709 68.469 31.9948C68.3384 32.2001 68.2731 32.4427 68.2731 32.7227V46.6362H63.094V32.9186C63.094 31.6495 63.3926 30.5484 63.9898 29.6152C64.5871 28.6821 65.3802 27.9635 66.3694 27.4596C67.3772 26.9371 68.4783 26.6758 69.6728 26.6758C70.8672 26.6758 71.9591 26.9371 72.9482 27.4596C73.9374 27.9635 74.7305 28.6821 75.3278 29.6152C75.925 30.5484 76.2236 31.6495 76.2236 32.9186V40.9812C76.2236 41.2425 76.2889 41.4851 76.4196 41.7091C76.5502 41.9143 76.7182 42.0823 76.9235 42.213C77.1288 42.3249 77.3527 42.3809 77.5954 42.3809C77.838 42.3809 78.0619 42.3249 78.2672 42.213C78.4912 42.0823 78.6685 41.9143 78.7991 41.7091C78.9298 41.4851 78.9951 41.2425 78.9951 40.9812V32.9186C78.9951 31.6495 79.2937 30.5484 79.8909 29.6152C80.4882 28.6821 81.2814 27.9635 82.2705 27.4596C83.2783 26.9371 84.3795 26.6758 85.5739 26.6758C86.7497 26.6758 87.8322 26.9371 88.8213 27.4596C89.8105 27.9635 90.6037 28.6821 91.2009 29.6152C91.7981 30.5484 92.0967 31.6495 92.0967 32.9186V46.6362H86.9457V32.6667C86.9457 32.4054 86.8803 32.1721 86.7497 31.9668C86.6191 31.7615 86.4511 31.6029 86.2458 31.4909C86.0405 31.3789 85.8165 31.3229 85.5739 31.3229C85.3126 31.3229 85.07 31.3789 84.846 31.4909C84.6407 31.6029 84.4728 31.7615 84.3421 31.9668C84.2302 32.1721 84.1742 32.4054 84.1742 32.6667V40.7852C84.1742 42.073 83.8662 43.1835 83.2503 44.1166C82.6344 45.0498 81.8319 45.759 80.8428 46.2442C79.8536 46.7295 78.7711 46.9721 77.5954 46.9721Z" fill="#3ECDBA"/>
<path d="M50.505 47.0001C48.9559 47.0001 47.5375 46.7481 46.2498 46.2442C44.962 45.7217 43.8515 45.0031 42.9184 44.0886C42.0039 43.1555 41.2853 42.073 40.7628 40.8412C40.2589 39.6094 40.0069 38.275 40.0069 36.8379C40.0069 35.4009 40.2589 34.0664 40.7628 32.8347C41.2853 31.5842 42.0039 30.5018 42.9184 29.5873C43.8515 28.6728 44.962 27.9635 46.2498 27.4596C47.5375 26.9371 48.9559 26.6758 50.505 26.6758C52.0727 26.6758 53.4911 26.9371 54.7602 27.4596C56.048 27.9635 57.1585 28.6728 58.0916 29.5873C59.0248 30.5018 59.7433 31.5842 60.2472 32.8347C60.7511 34.0664 61.0031 35.4009 61.0031 36.8379C61.0031 38.275 60.7511 39.6094 60.2472 40.8412C59.7433 42.073 59.0248 43.1555 58.0916 44.0886C57.1585 45.0031 56.048 45.7217 54.7602 46.2442C53.4911 46.7481 52.0727 47.0001 50.505 47.0001ZM50.505 42.5769C51.2702 42.5769 51.9607 42.4369 52.5766 42.157C53.2112 41.8584 53.7524 41.4478 54.2003 40.9252C54.6669 40.384 55.0122 39.7681 55.2361 39.0775C55.4788 38.387 55.6001 37.6405 55.6001 36.8379C55.6001 36.0354 55.4788 35.2889 55.2361 34.5983C55.0122 33.8891 54.6669 33.2733 54.2003 32.7507C53.7524 32.2281 53.2112 31.8268 52.5766 31.5469C51.9607 31.2483 51.2702 31.099 50.505 31.099C49.7585 31.099 49.0679 31.2483 48.4334 31.5469C47.7988 31.8268 47.2576 32.2281 46.8097 32.7507C46.3617 33.2733 46.0165 33.8891 45.7739 34.5983C45.5312 35.2889 45.4099 36.0354 45.4099 36.8379C45.4099 37.6405 45.5312 38.387 45.7739 39.0775C46.0165 39.7681 46.3617 40.384 46.8097 40.9252C47.2576 41.4478 47.7988 41.8584 48.4334 42.157C49.0679 42.4369 49.7585 42.5769 50.505 42.5769Z" fill="black"/>
<path d="M27.9778 47.0001C26.4288 47.0001 25.0104 46.7481 23.7226 46.2442C22.4348 45.7217 21.3244 45.0031 20.3912 44.0886C19.4767 43.1555 18.7582 42.073 18.2356 40.8412C17.7317 39.6094 17.4797 38.275 17.4797 36.8379C17.4797 35.4009 17.7317 34.0664 18.2356 32.8347C18.7582 31.5842 19.4767 30.5018 20.3912 29.5873C21.3244 28.6728 22.4348 27.9635 23.7226 27.4596C25.0104 26.9371 26.4288 26.6758 27.9778 26.6758C29.5455 26.6758 30.964 26.9371 32.2331 27.4596C33.5208 27.9635 34.6313 28.6728 35.5645 29.5873C36.4976 30.5018 37.2162 31.5842 37.7201 32.8347C38.224 34.0664 38.4759 35.4009 38.4759 36.8379C38.4759 38.275 38.224 39.6094 37.7201 40.8412C37.2162 42.073 36.4976 43.1555 35.5645 44.0886C34.6313 45.0031 33.5208 45.7217 32.2331 46.2442C30.964 46.7481 29.5455 47.0001 27.9778 47.0001ZM27.9778 42.5769C28.743 42.5769 29.4336 42.4369 30.0495 42.157C30.684 41.8584 31.2252 41.4478 31.6732 40.9252C32.1397 40.384 32.485 39.7681 32.709 39.0775C32.9516 38.387 33.0729 37.6405 33.0729 36.8379C33.0729 36.0354 32.9516 35.2889 32.709 34.5983C32.485 33.8891 32.1397 33.2733 31.6732 32.7507C31.2252 32.2281 30.684 31.8268 30.0495 31.5469C29.4336 31.2483 28.743 31.099 27.9778 31.099C27.2313 31.099 26.5408 31.2483 25.9062 31.5469C25.2717 31.8268 24.7304 32.2281 24.2825 32.7507C23.8346 33.2733 23.4893 33.8891 23.2467 34.5983C23.0041 35.2889 22.8828 36.0354 22.8828 36.8379C22.8828 37.6405 23.0041 38.387 23.2467 39.0775C23.4893 39.7681 23.8346 40.384 24.2825 40.9252C24.7304 41.4478 25.2717 41.8584 25.9062 42.157C26.5408 42.4369 27.2313 42.5769 27.9778 42.5769Z" fill="black"/>
<path d="M0 46.6362V27.0398H8.59444C9.95686 27.0398 11.198 27.3384 12.3178 27.9356C13.4562 28.5329 14.3521 29.3634 15.0053 30.4272C15.6772 31.491 16.0131 32.7321 16.0131 34.1505C16.0131 35.5503 15.6772 36.7914 15.0053 37.8738C14.3521 38.9376 13.4562 39.7775 12.3178 40.3934C11.198 40.9906 9.95686 41.2892 8.59444 41.2892H5.34703V46.6362H0ZM5.34703 36.978H8.00655C8.49179 36.978 8.93038 36.866 9.32231 36.6421C9.71424 36.4181 10.0222 36.1008 10.2461 35.6902C10.4888 35.261 10.6101 34.7571 10.6101 34.1785C10.6101 33.5813 10.4888 33.0774 10.2461 32.6668C10.0222 32.2375 9.7049 31.9202 9.29431 31.7149C8.90238 31.491 8.47313 31.379 8.00655 31.379H5.34703V36.978Z" fill="black"/>
<path fill-rule="evenodd" clip-rule="evenodd" d="M58.0905 0C57.2271 0 56.5271 0.666312 56.5271 1.48825V5.63295C56.5267 7.46087 56.9029 9.27112 57.6343 10.9604C58.3657 12.6498 59.4382 14.1852 60.7909 15.479C62.1436 16.7727 63.7499 17.7993 65.5183 18.4999C67.2868 19.2004 69.1825 19.5611 71.0971 19.5611H76.0385V20.143V20.2266V22.8649H79.1653V21.6334H80.6037L81.4706 21.6335C84.7303 21.6349 87.3808 21.6363 90.3847 20.0021C93.5335 18.2891 97.1758 15.2285 97.1758 10.5785V8.50325C97.1758 7.68131 96.4759 7.015 95.6124 7.015H93.3611H91.1098C91.0635 7.015 91.0172 7.01696 90.971 7.02088C89.6055 7.13671 88.6617 7.26569 87.8313 7.46406C86.994 7.66408 86.322 7.92359 85.531 8.23695C83.776 8.93218 80.9399 10.4217 79.204 13.7414L79.1649 13.8163C79.135 10.1646 77.6051 6.66727 74.9003 4.08097C72.1685 1.46875 68.4618 0 64.5953 0H58.0905ZM71.0971 16.5846H76.0385V13.9252C76.0385 11.0193 74.8312 8.23372 72.6844 6.18094C70.5378 4.12839 67.628 2.9765 64.5953 2.9765H59.6539V5.6333C59.6536 7.07224 59.9497 8.49701 60.5252 9.82616C61.1007 11.1553 61.9441 12.3626 63.0071 13.3792C64.0701 14.3959 65.3317 15.202 66.7197 15.7518C68.1077 16.3017 69.5951 16.5846 71.0971 16.5846Z" fill="#3ECDBA"/>
</svg>
